<svg width="135" height="135" viewBox="0 0 135 135" fill="none" xmlns="http://www.w3.org/2000/svg">
<g id="Google__G__Logo 1">
<path id="Vector" d="M126.9 68.9062C126.9 64.5188 126.506 60.3 125.775 56.25H67.5V80.2125H100.8C99.3375 87.9188 94.95 94.4437 88.3687 98.8312V114.413H108.45C120.15 103.612 126.9 87.75 126.9 68.9062Z" fill="#4285F4"/>
<path id="Vector_2" d="M67.5001 129.375C84.2063 129.375 98.2126 123.862 108.45 114.412L88.3688 98.8312C82.8563 102.544 75.8251 104.794 67.5001 104.794C51.4126 104.794 37.7438 93.9375 32.8501 79.3125H12.2626V95.2875C22.4438 115.481 43.3126 129.375 67.5001 129.375Z" fill="#34A853"/>
<path id="Vector_3" d="M32.8499 79.2562C31.6124 75.5437 30.8811 71.6062 30.8811 67.4999C30.8811 63.3937 31.6124 59.4562 32.8499 55.7437V39.7687H12.2624C8.04363 48.0937 5.62488 57.4874 5.62488 67.4999C5.62488 77.5124 8.04363 86.9062 12.2624 95.2312L28.2936 82.7437L32.8499 79.2562Z" fill="#FBBC05"/>
<path id="Vector_4" d="M67.5001 30.2625C76.6126 30.2625 84.7126 33.4125 91.1813 39.4875L108.9 21.7687C98.1563 11.7562 84.2063 5.625 67.5001 5.625C43.3126 5.625 22.4438 19.5188 12.2626 39.7687L32.8501 55.7437C37.7438 41.1188 51.4126 30.2625 67.5001 30.2625Z" fill="#EA4335"/>
</g>
</svg>
