<svg width="136" height="136" viewBox="0 0 136 136" fill="none" xmlns="http://www.w3.org/2000/svg">
<g id="Layer 2">
<path id="Vector" d="M105.474 0H30.5258C13.6669 0 0 13.6669 0 30.5258V105.474C0 122.333 13.6669 136 30.5258 136H105.474C122.333 136 136 122.333 136 105.474V30.5258C136 13.6669 122.333 0 105.474 0Z" fill="#0B86CA"/>
<path id="Vector_2" d="M37.6859 56.5289H51.8182V102.129H37.6859V56.5289ZM44.8934 33.8701C46.5126 33.8701 48.0954 34.3497 49.4423 35.2483C50.7893 36.1469 51.8399 37.4243 52.4616 38.9193C53.0834 40.4143 53.2484 42.06 52.9359 43.6487C52.6235 45.2374 51.8475 46.698 50.7058 47.8462C49.5642 48.9944 48.1081 49.7787 46.5212 50.1003C44.9343 50.4219 43.2877 50.2663 41.7892 49.6531C40.2906 49.0399 39.0072 47.9967 38.1009 46.6549C37.1946 45.3132 36.706 43.7331 36.6967 42.114C36.6905 41.0336 36.8979 39.9627 37.307 38.9627C37.7162 37.9628 38.319 37.0537 39.0807 36.2875C39.8425 35.5214 40.7482 34.9134 41.7457 34.4985C42.7433 34.0837 43.813 33.8701 44.8934 33.8701Z" fill="white"/>
<path id="Vector_3" d="M60.8636 56.5294H74.4778V62.7476C75.8406 60.4219 77.8093 58.5099 80.1738 57.2156C82.5384 55.9214 85.2099 55.2934 87.9035 55.3988C102.036 55.3988 104.909 64.8204 104.909 77.1155V102.13H90.777V80.0833C90.777 74.8072 90.777 67.9766 83.4282 67.9766C76.0794 67.9766 74.9488 73.7237 74.9488 79.6593V102.224H60.8165L60.8636 56.5294Z" fill="white"/>
</g>
</svg>
