<svg width="144" height="143" viewBox="0 0 144 143" fill="none" xmlns="http://www.w3.org/2000/svg">
<g id="Link &#226;&#134;&#146; SVG">
<path id="Vector" d="M121.156 8.9375H22.8438C19.2882 8.9375 15.8783 10.3499 13.3641 12.8641C10.8499 15.3783 9.4375 18.7882 9.4375 22.3438L9.4375 120.656C9.4375 124.212 10.8499 127.622 13.3641 130.136C15.8783 132.65 19.2882 134.062 22.8438 134.062H61.1772V91.5228H43.5815V71.5H61.1772V56.2392C61.1772 38.8809 71.5112 29.2927 87.339 29.2927C94.9191 29.2927 102.846 30.6445 102.846 30.6445V47.6816H94.1119C85.5068 47.6816 82.8228 53.0217 82.8228 58.4987V71.5H102.033L98.9605 91.5228H82.8228V134.062H121.156C124.712 134.062 128.122 132.65 130.636 130.136C133.15 127.622 134.562 124.212 134.562 120.656V22.3438C134.562 18.7882 133.15 15.3783 130.636 12.8641C128.122 10.3499 124.712 8.9375 121.156 8.9375Z" fill="#4054B2"/>
</g>
</svg>
