<svg width="145" height="118" viewBox="0 0 145 118" fill="none" xmlns="http://www.w3.org/2000/svg">
<path id="Vector" d="M145 13.9683C139.546 16.351 133.777 17.9345 127.872 18.6701C134.095 14.9724 138.748 9.1172 140.949 2.21358C135.122 5.67496 128.747 8.11249 122.099 9.4207C118.023 5.06175 112.733 2.0313 106.915 0.723088C101.097 -0.585127 95.0207 -0.11064 89.4757 2.0849C83.9306 4.28045 79.1729 8.09556 75.8207 13.0346C72.4686 17.9736 70.6769 23.8082 70.6784 29.7804C70.6784 32.1404 70.8778 34.4096 71.3672 36.57C59.5414 35.9892 47.971 32.9151 37.4127 27.5485C26.8544 22.1819 17.5458 14.6437 10.0956 5.42683C6.27867 11.9791 5.09864 19.7422 6.79582 27.1354C8.49299 34.5285 12.9397 40.9958 19.2306 45.2203C14.525 45.0939 9.91867 43.8362 5.8 41.5532V41.88C5.80788 48.7552 8.18041 55.4177 12.5182 60.7461C16.856 66.0745 22.8941 69.7434 29.6162 71.1351C27.0732 71.8064 24.4523 72.136 21.8225 72.1154C19.9338 72.149 18.0469 71.9786 16.1947 71.6071C18.1154 77.5164 21.8179 82.6841 26.7923 86.3985C31.7668 90.113 37.7685 92.1915 43.9713 92.348C33.4491 100.59 20.4719 105.061 7.11406 105.047C4.67625 105.047 2.33812 104.938 0 104.638C13.5927 113.412 29.4321 118.052 45.6025 118C100.304 118 130.21 72.6146 130.21 33.275C130.21 31.9588 130.165 30.6881 130.101 29.4264C135.964 25.2236 141.013 19.9852 145 13.9683Z" fill="#03A9F4"/>
</svg>
